Coordinates
version=1
nRows=13
nColumns=40
inDegrees=yes

Units are S.I. units (second, meters, Newtons, ...)
If the header above contains a line with 'inDegrees', this indicates whether rotational values are in degrees (yes) or radians (no).

endheader
time	pelvis_tilt	pelvis_list	pelvis_rotation	pelvis_tx	pelvis_ty	pelvis_tz	hip_flexion_r	hip_adduction_r	hip_rotation_r	knee_angle_r	knee_angle_r_beta	ankle_angle_r	subtalar_angle_r	mtp_angle_r	hip_flexion_l	hip_adduction_l	hip_rotation_l	knee_angle_l	knee_angle_l_beta	ankle_angle_l	subtalar_angle_l	mtp_angle_l	lumbar_extension	lumbar_bending	lumbar_rotation	arm_flex_r	arm_add_r	arm_rot_r	elbow_flex_r	pro_sup_r	wrist_flex_r	wrist_dev_r	arm_flex_l	arm_add_l	arm_rot_l	elbow_flex_l	pro_sup_l	wrist_flex_l	wrist_dev_l
      1.83000000	     -1.74533758	     13.22119609	    -89.79064733	      0.21651162	      0.87801243	      0.70640003	    -10.42946344	      7.83970508	      8.49261658	     -0.59309377	     -0.01035144	     10.00675000	      0.00000000	     -0.00000000	     38.69631215	      3.14781112	      4.76126681	      1.19305378	      0.02082272	     -1.69408701	     -0.00000000	     -0.00000000	      8.42874308	      0.23042403	      5.12150487	     -0.00000000	     -0.00000000	      0.00000000	      0.00000000	      0.00000000	     -0.00000000	     -0.00000000	      0.00000000	      0.00000000	      0.00000000	      0.00000000	      0.00000000	      0.00000000	      0.00000000
      1.84000000	     -1.59074931	     13.41823867	    -89.81254314	      0.21682798	      0.87742543	      0.71771754	    -10.55976315	      7.66848817	      8.36134543	      0.07272297	      0.00126926	      9.56812191	      0.00000000	      0.00000000	     38.54761131	      3.44600501	      4.80300775	      1.66125698	      0.02899440	     -2.23157593	      0.00000000	      0.00000000	      8.75340923	      0.04734098	      4.88031651	      0.00000000	      0.00000000	      0.00000000	      0.00000000	      0.00000000	      0.00000000	      0.00000000	      0.00000000	      0.00000000	      0.00000000	      0.00000000	      0.00000000	      0.00000000	      0.00000000
      1.85000000	     -1.25925958	     13.61225605	    -89.82992255	      0.21719375	      0.87713078	      0.72939182	    -10.58445358	      7.31325400	      7.46321181	      0.88256546	      0.01540367	      8.58251605	      0.00000000	      0.00000000	     38.21520604	      3.88108012	      4.39411309	      1.80675727	      0.03153386	     -4.22997481	      0.00000000	      0.00000000	      9.13717450	     -0.36500340	      4.62338281	      0.00000000	      0.00000000	      0.00000000	      0.00000000	      0.00000000	      0.00000000	      0.00000000	      0.00000000	      0.00000000	      0.00000000	      0.00000000	      0.00000000	      0.00000000	      0.00000000
      1.86000000	     -0.96048873	     13.75190346	    -89.84324840	      0.21754211	      0.87715400	      0.74109959	    -10.56778783	      6.98959901	      6.81105357	      1.85553993	      0.03238528	      7.67187251	      0.00000000	      0.00000000	     37.87787191	      4.27052792	      4.10653878	      2.11543506	      0.03692131	     -5.76318999	      0.00000000	      0.00000000	      9.43291278	     -0.73088801	      4.36687676	      0.00000000	      0.00000000	      0.00000000	      0.00000000	      0.00000000	      0.00000000	      0.00000000	      0.00000000	      0.00000000	      0.00000000	      0.00000000	      0.00000000	      0.00000000	      0.00000000
      1.87000000	     -0.62601623	     13.89722641	    -89.85380003	      0.21793000	      0.87745667	      0.75286867	    -10.41836318	      6.61933084	      6.06911779	      3.00886659	      0.05251463	      6.58518522	      0.00000000	      0.00000000	     37.52975259	      4.67312525	      3.68889257	      2.41141539	      0.04208714	     -7.30976038	      0.00000000	      0.00000000	      9.73592008	     -1.13421482	      4.09122345	      0.00000000	      0.00000000	      0.00000000	      0.00000000	      0.00000000	      0.00000000	      0.00000000	      0.00000000	      0.00000000	      0.00000000	      0.00000000	      0.00000000	      0.00000000	      0.00000000
      1.88000000	     -0.26884619	     14.01946530	    -89.85988507	      0.21831591	      0.87807488	      0.76470292	    -10.15548972	      6.20748736	      5.17173970	      4.35853441	      0.07607078	      5.31089062	     -0.00000000	     -0.00000000	     37.14576658	      5.07436188	      3.23674262	      2.71532891	      0.04739143	     -8.87063425	      0.00000000	      0.00000000	     10.01651464	     -1.56956171	      3.80593055	     -0.00000000	      0.00000000	     -0.00000000	      0.00000000	      0.00000000	     -0.00000000	      0.00000000	      0.00000000	     -0.00000000	     -0.00000000	      0.00000000	      0.00000000	      0.00000000	     -0.00000000
      1.89000000	      0.11634418	     14.11950462	    -89.86416023	      0.21873197	      0.87900716	      0.77654858	     -9.76255760	      5.73988578	      4.18785020	      5.92998019	      0.10349768	      3.85692514	      0.00000000	      0.00000000	     36.71898021	      5.48723279	      2.78099596	      3.01011660	      0.05253645	    -10.29288592	      0.00000000	      0.00000000	     10.26522242	     -2.03610626	      3.52563790	      0.00000000	      0.00000000	      0.00000000	      0.00000000	      0.00000000	      0.00000000	      0.00000000	      0.00000000	      0.00000000	      0.00000000	      0.00000000	      0.00000000	      0.00000000	      0.00000000
      1.90000000	      0.50122922	     14.20072614	    -89.86789969	      0.21915052	      0.88025074	      0.78838095	     -9.22920316	      5.23503207	      3.15402861	      7.73107736	      0.13493275	      2.18913230	      0.00000000	     -0.00000000	     36.23513443	      5.88239369	      2.28145099	      3.25623872	      0.05683209	    -11.43869720	      0.00000000	     -0.00000000	     10.49121589	     -2.49911407	      3.26285233	     -0.00000000	      0.00000000	     -0.00000000	      0.00000000	      0.00000000	      0.00000000	      0.00000000	      0.00000000	     -0.00000000	     -0.00000000	      0.00000000	      0.00000000	     -0.00000000	      0.00000000
      1.91000000	      0.89807592	     14.26005786	    -89.86914599	      0.21961246	      0.88176806	      0.80017480	     -8.55884863	      4.66733713	      2.04322357	      9.76395017	      0.17041308	      0.32495263	      0.00000000	      0.00000000	     35.70306281	      6.28248533	      1.83820279	      3.48867985	      0.06088895	    -12.33590375	      0.00000000	      0.00000000	     10.68632233	     -2.97192858	      2.99605358	      0.00000000	      0.00000000	      0.00000000	      0.00000000	      0.00000000	      0.00000000	      0.00000000	      0.00000000	      0.00000000	      0.00000000	      0.00000000	      0.00000000	      0.00000000	      0.00000000
      1.92000000	      1.30151176	     14.30177827	    -89.86868356	      0.22012220	      0.88354065	      0.81188944	     -7.73916716	      4.02879493	      0.88997289	     12.03828216	      0.21010766	     -1.71312078	      0.00000000	      0.00000000	     35.11211932	      6.68842283	      1.47691597	      3.67714644	      0.06417831	    -12.94357882	      0.00000000	      0.00000000	     10.85688678	     -3.44527058	      2.72537706	      0.00000000	      0.00000000	      0.00000000	      0.00000000	      0.00000000	      0.00000000	      0.00000000	      0.00000000	      0.00000000	      0.00000000	      0.00000000	      0.00000000	      0.00000000	      0.00000000
      1.93000000	      1.69126543	     14.32850302	    -89.86781171	      0.22066089	      0.88552188	      0.82348626	     -6.77815474	      3.34351786	     -0.23832272	     14.54111514	      0.25379034	     -3.89907867	      0.00000000	      0.00000000	     34.45700543	      7.08174659	      1.17546182	      3.79994158	      0.06632149	    -13.23390682	      0.00000000	      0.00000000	     11.00021160	     -3.89632535	      2.48292972	      0.00000000	      0.00000000	      0.00000000	      0.00000000	      0.00000000	      0.00000000	      0.00000000	      0.00000000	      0.00000000	      0.00000000	      0.00000000	      0.00000000	      0.00000000	      0.00000000
      1.94000000	      2.06773792	     14.33692938	    -89.86425034	      0.22123363	      0.88767165	      0.83495448	     -5.69466937	      2.60770130	     -1.28986433	     17.24499658	      0.30098197	     -6.17775615	      0.00000000	      0.00000000	     33.74118027	      7.46660248	      0.97125267	      3.87385800	      0.06761158	    -13.23898971	      0.00000000	      0.00000000	     11.11105423	     -4.32356564	      2.24553821	      0.00000000	      0.00000000	      0.00000000	      0.00000000	      0.00000000	      0.00000000	      0.00000000	      0.00000000	      0.00000000	      0.00000000	      0.00000000	      0.00000000	      0.00000000	      0.00000000
      1.95000000	      2.40872506	     14.32790306	    -89.86146068	      0.22183309	      0.88994343	      0.84624810	     -4.49650198	      1.84376603	     -2.27734565	     20.12712188	      0.35128455	     -8.48321018	      0.00000000	      0.00000000	     32.95124791	      7.82396205	      0.84412375	      3.85945481	      0.06736019	    -12.99692932	      0.00000000	      0.00000000	     11.19483327	     -4.70718412	      2.03313655	      0.00000000	      0.00000000	      0.00000000	      0.00000000	      0.00000000	      0.00000000	      0.00000000	      0.00000000	      0.00000000	      0.00000000	      0.00000000	      0.00000000	      0.00000000	      0.00000000
